<svg width="510" height="609" viewBox="0 0 510 609" fill="none" xmlns="http://www.w3.org/2000/svg">
<path fill-rule="evenodd" clip-rule="evenodd" d="M240.161 85.0451C297.675 73.6912 331.361 -12.9955 389.351 -4.40203C439.526 3.03327 455.717 72.6089 474.418 119.759C490.654 160.695 486.063 205.634 490.05 249.491C493.353 285.824 493.519 321.182 496.039 357.578C499.001 400.339 516.526 442.719 506.314 484.348C495.41 528.798 477.638 580.941 436.385 600.764C393.047 621.59 341.58 595.741 294.462 586.152C259.116 578.959 224.562 569.228 193.271 551.286C166.284 535.812 151.288 505.844 125.106 489.045C97.0574 471.048 57.3176 473.715 34.5087 449.418C11.5288 424.939 -1.44182 389.452 0.127803 355.913C1.68849 322.565 40.2879 299.912 43.0626 266.643C46.9107 220.505 4.26267 175.356 18.8515 131.417C32.2549 91.0472 73.4457 58.4662 115.078 49.743C157.949 40.7602 197.189 93.5284 240.161 85.0451Z" fill="url(#paint0_radial_51_60)"/>
<defs>
<radialGradient id="paint0_radial_51_60" cx="0" cy="0" r="1" gradientUnits="userSpaceOnUse" gradientTransform="translate(254.738 301.833) scale(254.738 306.833)">
<stop stop-color="#9796F0" stop-opacity="0.2"/>
<stop offset="1" stop-color="#FBC7D4" stop-opacity="0.2"/>
</radialGradient>
</defs>
</svg>
